ffmpeg version 3.4.8-0ubuntu0.2 Copyright (c) 2000-2020 the FFmpeg developers
  built with gcc 7 (Ubuntu 7.5.0-3ubuntu1~18.04)
  configuration: --prefix=/usr --extra-version=0ubuntu0.2 --toolchain=hardened --libdir=/usr/lib/x86_64-linux-gnu --incdir=/usr/include/x86_64-linux-gnu --enable-gpl --disable-stripping --enable-avresample --enable-avisynth --enable-gnutls --enable-ladspa --enable-libass --enable-libbluray --enable-libbs2b --enable-libcaca --enable-libcdio --enable-libflite --enable-libfontconfig --enable-libfreetype --enable-libfribidi --enable-libgme --enable-libgsm --enable-libmp3lame --enable-libmysofa --enable-libopenjpeg --enable-libopenmpt --enable-libopus --enable-libpulse --enable-librubberband --enable-librsvg --enable-libshine --enable-libsnappy --enable-libsoxr --enable-libspeex --enable-libssh --enable-libtheora --enable-libtwolame --enable-libvorbis --enable-libvpx --enable-libwavpack --enable-libwebp --enable-libx265 --enable-libxml2 --enable-libxvid --enable-libzmq --enable-libzvbi --enable-omx --enable-openal --enable-opengl --enable-sdl2 --enable-libdc1394 --enable-libdrm --enable-libiec61883 --enable-chromaprint --enable-frei0r --enable-libopencv --enable-libx264 --enable-shared
  libavutil      55. 78.100 / 55. 78.100
  libavcodec     57.107.100 / 57.107.100
  libavformat    57. 83.100 / 57. 83.100
  libavdevice    57. 10.100 / 57. 10.100
  libavfilter     6.107.100 /  6.107.100
  libavresample   3.  7.  0 /  3.  7.  0
  libswscale      4.  8.100 /  4.  8.100
  libswresample   2.  9.100 /  2.  9.100
  libpostproc    54.  7.100 / 54.  7.100
[rawvideo @ 0x5622e2007a20] Estimating duration from bitrate, this may be inaccurate
Input #0, rawvideo, from '../../SVC-Encoder-20220109T061506Z-001/SVC-Encoder/Dataset/RollerCoaster/ERP_8x8/tile_yuv/Tile_38_480x240.yuv':
  Duration: 00:00:10.00, start: 0.000000, bitrate: 41472 kb/s
    Stream #0:0: Video: rawvideo (I420 / 0x30323449), yuv420p, 480x240, 41472 kb/s, 30 tbr, 30 tbn, 30 tbc
Stream mapping:
  Stream #0:0 -> #0:0 (rawvideo (native) -> h264 (libx264))
Press [q] to stop, [?] for help
[libx264 @ 0x5622e2014c60] using cpu capabilities: MMX2 SSE2Fast LZCNT SSSE3 SSE4.2 AVX
[libx264 @ 0x5622e2014c60] profile High, level 2.1
Output #0, rawvideo, to 'RollerCoaster_Tile_38_480x240_x264_QP_32.h264':
  Metadata:
    encoder         : Lavf57.83.100
    Stream #0:0: Video: h264 (libx264), yuv420p, 480x240, q=-1--1, 30 fps, 30 tbn, 30 tbc
    Metadata:
      encoder         : Lavc57.107.100 libx264
    Side data:
      cpb: bitrate max/min/avg: 0/0/0 buffer size: 0 vbv_delay: -1
frame=  172 fps=0.0 q=38.0 PSNR=Y:nan U:nan V:nan *:nan size=      54kB time=00:00:04.30 bitrate= 102.0kbits/s speed=8.51x    frame=  300 fps=0.0 q=38.0 LPSNR=Y:inf U:inf V:inf *:inf size=     117kB time=00:00:09.93 bitrate=  96.2kbits/s speed=10.3x    
video:117kB audio:0kB subtitle:0kB other streams:0kB global headers:0kB muxing overhead: 0.000000%
[libx264 @ 0x5622e2014c60] frame I:2     Avg QP:30.31  size:  9227  PSNR Mean Y:35.89 U:44.44 V:47.42 Avg:37.43 Global:37.21
[libx264 @ 0x5622e2014c60] frame P:76    Avg QP:31.89  size:   915  PSNR Mean Y:34.44 U:44.58 V:46.80 Avg:36.03 Global:36.01
[libx264 @ 0x5622e2014c60] frame B:222   Avg QP:37.50  size:   142  PSNR Mean Y:34.33 U:44.65 V:46.87 Avg:35.93 Global:35.91
[libx264 @ 0x5622e2014c60] consecutive B-frames:  1.0%  0.7%  1.0% 97.3%
[libx264 @ 0x5622e2014c60] mb I  I16..4:  9.3% 85.7%  5.0%
[libx264 @ 0x5622e2014c60] mb P  I16..4:  0.0%  0.7%  0.4%  P16..4: 44.7%  7.3%  1.4%  0.0%  0.0%    skip:45.4%
[libx264 @ 0x5622e2014c60] mb B  I16..4:  0.0%  0.0%  0.0%  B16..8: 20.4%  0.6%  0.2%  direct: 0.1%  skip:78.8%  L0:27.0% L1:72.7% BI: 0.3%
[libx264 @ 0x5622e2014c60] 8x8 transform intra:78.4% inter:70.6%
[libx264 @ 0x5622e2014c60] coded y,uvDC,uvAC intra: 79.4% 62.3% 30.1% inter: 3.4% 1.5% 0.0%
[libx264 @ 0x5622e2014c60] i16 v,h,dc,p: 11%  8% 53% 28%
[libx264 @ 0x5622e2014c60] i8 v,h,dc,ddl,ddr,vr,hd,vl,hu:  7% 11% 22%  8% 11% 17%  7%  6% 13%
[libx264 @ 0x5622e2014c60] i4 v,h,dc,ddl,ddr,vr,hd,vl,hu: 13%  6% 33%  3% 11% 22%  3%  1%  6%
[libx264 @ 0x5622e2014c60] i8c dc,h,v,p: 62% 15% 16%  7%
[libx264 @ 0x5622e2014c60] Weighted P-Frames: Y:1.3% UV:0.0%
[libx264 @ 0x5622e2014c60] ref P L0: 61.0% 24.8% 10.7%  3.4%  0.0%
[libx264 @ 0x5622e2014c60] ref B L0: 93.4%  5.9%  0.8%
[libx264 @ 0x5622e2014c60] ref B L1: 92.3%  7.7%
[libx264 @ 0x5622e2014c60] PSNR Mean Y:34.367 U:44.634 V:46.853 Avg:35.966 Global:35.943 kb/s:95.51
